<?xml version="1.0" encoding="UTF-8" standalone="no"?>
<!DOCTYPE svg PUBLIC "-//W3C//DTD SVG 1.1//EN"
 "http://www.w3.org/Graphics/SVG/1.1/DTD/svg11.dtd">
<!-- Generated by graphviz version 2.43.0 (0)
 -->
<!-- Title: pastafarianism Pages: 1 -->
<svg width="352pt" height="116pt"
 viewBox="0.00 0.00 351.81 116.00" xmlns="http://www.w3.org/2000/svg" xmlns:xlink="http://www.w3.org/1999/xlink">
<g id="graph0" class="graph" transform="scale(1 1) rotate(0) translate(4 112)">
<title>pastafarianism</title>
<polygon fill="white" stroke="transparent" points="-4,4 -4,-112 347.81,-112 347.81,4 -4,4"/>
<!-- Kinect ArUco Sequence -->
<g id="node1" class="node">
<title>Kinect ArUco Sequence</title>
<polygon fill="orange" stroke="black" points="248.83,-108 107.83,-108 107.83,-72 248.83,-72 248.83,-108"/>
<text text-anchor="middle" x="178.33" y="-87.8" font-family="Times,serif" font-size="9.00">Ⓜ Kinect ArUco Sequence</text>
</g>
<!-- Aguardar Detecção do ArUco -->
<g id="node2" class="node">
<title>Aguardar Detecção do ArUco</title>
<ellipse fill="gray" stroke="black" cx="88.33" cy="-18" rx="88.17" ry="18"/>
<text text-anchor="middle" x="88.33" y="-15.8" font-family="Times,serif" font-size="9.00">Aguardar Detecção do ArUco</text>
</g>
<!-- Kinect ArUco Sequence&#45;&gt;Aguardar Detecção do ArUco -->
<g id="edge1" class="edge">
<title>Kinect ArUco Sequence&#45;&gt;Aguardar Detecção do ArUco</title>
<path fill="none" stroke="black" d="M156.09,-71.7C144.47,-62.66 130.11,-51.5 117.61,-41.77"/>
<polygon fill="black" stroke="black" points="119.75,-39 109.71,-35.62 115.45,-44.52 119.75,-39"/>
</g>
<!-- Capturar Pose do ArUco -->
<g id="node3" class="node">
<title>Capturar Pose do ArUco</title>
<ellipse fill="gray" stroke="black" cx="269.33" cy="-18" rx="74.46" ry="18"/>
<text text-anchor="middle" x="269.33" y="-15.8" font-family="Times,serif" font-size="9.00">Capturar Pose do ArUco</text>
</g>
<!-- Kinect ArUco Sequence&#45;&gt;Capturar Pose do ArUco -->
<g id="edge2" class="edge">
<title>Kinect ArUco Sequence&#45;&gt;Capturar Pose do ArUco</title>
<path fill="none" stroke="black" d="M200.83,-71.7C212.66,-62.6 227.3,-51.33 240.01,-41.55"/>
<polygon fill="black" stroke="black" points="242.24,-44.25 248.04,-35.38 237.98,-38.71 242.24,-44.25"/>
</g>
</g>
</svg>
